<svg width="32" height="32" viewBox="0 0 32 32" fill="none" xmlns="http://www.w3.org/2000/svg">
<g clip-path="url(#clip0_8_5)">
<rect width="31.88" height="32" fill="white"/>
<g filter="url(#filter0_d_8_5)">
<g filter="url(#filter1_d_8_5)">
<path d="M26 16C26 21.5228 21.5228 26 16 26C10.4772 26 6 21.5228 6 16C6 10.4772 10.4772 6 16 6C21.5228 6 26 10.4772 26 16Z" fill="black"/>
<path d="M16 6.15039C21.44 6.15039 25.8496 10.56 25.8496 16C25.8496 21.44 21.44 25.8496 16 25.8496C10.56 25.8496 6.15039 21.44 6.15039 16C6.15039 10.56 10.56 6.15039 16 6.15039Z" stroke="#FF0000" stroke-width="0.3"/>
</g>
</g>
<line y1="15.85" x2="32" y2="15.85" stroke="black" stroke-width="0.3"/>
<line x1="16.15" x2="16.15" y2="32" stroke="black" stroke-width="0.3"/>
</g>
<defs>
<filter id="filter0_d_8_5" x="1" y="1" width="30" height="30" filterUnits="userSpaceOnUse" color-interpolation-filters="sRGB">
<feFlood flood-opacity="0" result="BackgroundImageFix"/>
<feColorMatrix in="SourceAlpha" type="matrix" values="0 0 0 0 0 0 0 0 0 0 0 0 0 0 0 0 0 0 127 0" result="hardAlpha"/>
<feOffset/>
<feGaussianBlur stdDeviation="2.5"/>
<feComposite in2="hardAlpha" operator="out"/>
<feColorMatrix type="matrix" values="0 0 0 0 0 0 0 0 0 0 0 0 0 0 0 0 0 0 0.25 0"/>
<feBlend mode="normal" in2="BackgroundImageFix" result="effect1_dropShadow_8_5"/>
<feBlend mode="normal" in="SourceGraphic" in2="effect1_dropShadow_8_5" result="shape"/>
</filter>
<filter id="filter1_d_8_5" x="-4" y="-4" width="40" height="40" filterUnits="userSpaceOnUse" color-interpolation-filters="sRGB">
<feFlood flood-opacity="0" result="BackgroundImageFix"/>
<feColorMatrix in="SourceAlpha" type="matrix" values="0 0 0 0 0 0 0 0 0 0 0 0 0 0 0 0 0 0 127 0" result="hardAlpha"/>
<feOffset/>
<feGaussianBlur stdDeviation="5"/>
<feComposite in2="hardAlpha" operator="out"/>
<feColorMatrix type="matrix" values="0 0 0 0 1 0 0 0 0 0 0 0 0 0 0 0 0 0 0.25 0"/>
<feBlend mode="normal" in2="BackgroundImageFix" result="effect1_dropShadow_8_5"/>
<feBlend mode="normal" in="SourceGraphic" in2="effect1_dropShadow_8_5" result="shape"/>
</filter>
<clipPath id="clip0_8_5">
<rect width="31.88" height="32" fill="white"/>
</clipPath>
</defs>
</svg>
